<svg width="328" height="152" viewBox="0 0 328 152" fill="none" xmlns="http://www.w3.org/2000/svg">
<path d="M104.307 142.258V145H95.0137V142.258H104.307ZM96.0674 126.516V145H92.5762V126.516H96.0674ZM109.943 131.264V145H106.579V131.264H109.943ZM106.351 127.671C106.351 127.172 106.52 126.757 106.858 126.427C107.205 126.097 107.671 125.932 108.255 125.932C108.839 125.932 109.3 126.097 109.639 126.427C109.986 126.757 110.159 127.172 110.159 127.671C110.159 128.162 109.986 128.572 109.639 128.902C109.3 129.232 108.839 129.397 108.255 129.397C107.671 129.397 107.205 129.232 106.858 128.902C106.52 128.572 106.351 128.162 106.351 127.671ZM119.643 131.264V133.676H111.771V131.264H119.643ZM113.879 127.887H117.243V141.039C117.243 141.445 117.298 141.758 117.408 141.979C117.518 142.199 117.683 142.347 117.903 142.423C118.123 142.499 118.386 142.537 118.69 142.537C118.91 142.537 119.114 142.524 119.3 142.499C119.486 142.474 119.643 142.448 119.77 142.423L119.782 144.937C119.503 145.03 119.186 145.106 118.83 145.165C118.483 145.224 118.09 145.254 117.649 145.254C116.896 145.254 116.236 145.127 115.669 144.873C115.102 144.611 114.662 144.192 114.349 143.616C114.035 143.032 113.879 142.262 113.879 141.306V127.887ZM128.377 131.264V133.676H120.506V131.264H128.377ZM122.613 127.887H125.978V141.039C125.978 141.445 126.033 141.758 126.143 141.979C126.253 142.199 126.418 142.347 126.638 142.423C126.858 142.499 127.12 142.537 127.425 142.537C127.645 142.537 127.848 142.524 128.034 142.499C128.22 142.474 128.377 142.448 128.504 142.423L128.517 144.937C128.237 145.03 127.92 145.106 127.564 145.165C127.217 145.224 126.824 145.254 126.384 145.254C125.631 145.254 124.97 145.127 124.403 144.873C123.836 144.611 123.396 144.192 123.083 143.616C122.77 143.032 122.613 142.262 122.613 141.306V127.887ZM134.166 125.5V145H130.802V125.5H134.166ZM143.535 145.254C142.494 145.254 141.559 145.085 140.729 144.746C139.9 144.408 139.193 143.938 138.609 143.337C138.034 142.728 137.59 142.021 137.276 141.217C136.972 140.404 136.819 139.533 136.819 138.602V138.094C136.819 137.036 136.972 136.075 137.276 135.212C137.581 134.34 138.013 133.591 138.571 132.965C139.13 132.339 139.799 131.856 140.577 131.518C141.356 131.179 142.215 131.01 143.154 131.01C144.128 131.01 144.987 131.175 145.731 131.505C146.476 131.826 147.098 132.284 147.598 132.876C148.097 133.468 148.474 134.179 148.728 135.009C148.981 135.83 149.108 136.74 149.108 137.738V139.147H138.343V136.837H145.808V136.583C145.791 136.05 145.689 135.563 145.503 135.123C145.317 134.674 145.029 134.319 144.64 134.057C144.25 133.786 143.747 133.65 143.129 133.65C142.63 133.65 142.194 133.76 141.821 133.98C141.457 134.192 141.153 134.497 140.907 134.895C140.67 135.284 140.493 135.749 140.374 136.291C140.256 136.833 140.196 137.434 140.196 138.094V138.602C140.196 139.177 140.272 139.71 140.425 140.201C140.586 140.692 140.818 141.119 141.123 141.483C141.436 141.839 141.809 142.118 142.24 142.321C142.68 142.516 143.18 142.613 143.738 142.613C144.441 142.613 145.076 142.478 145.643 142.207C146.218 141.928 146.717 141.517 147.141 140.976L148.829 142.728C148.541 143.151 148.152 143.557 147.661 143.946C147.179 144.336 146.595 144.653 145.909 144.898C145.224 145.135 144.432 145.254 143.535 145.254ZM169.814 142.258V145H160.521V142.258H169.814ZM161.575 126.516V145H158.084V126.516H161.575ZM175.451 131.264V145H172.087V131.264H175.451ZM171.858 127.671C171.858 127.172 172.028 126.757 172.366 126.427C172.713 126.097 173.179 125.932 173.763 125.932C174.347 125.932 174.808 126.097 175.146 126.427C175.493 126.757 175.667 127.172 175.667 127.671C175.667 128.162 175.493 128.572 175.146 128.902C174.808 129.232 174.347 129.397 173.763 129.397C173.179 129.397 172.713 129.232 172.366 128.902C172.028 128.572 171.858 128.162 171.858 127.671ZM178.638 125.5H182.002V141.966L181.672 145H178.638V125.5ZM190.838 137.992V138.259C190.838 139.283 190.724 140.222 190.495 141.077C190.275 141.932 189.941 142.673 189.492 143.299C189.044 143.917 188.485 144.399 187.816 144.746C187.156 145.085 186.382 145.254 185.493 145.254C184.647 145.254 183.91 145.089 183.284 144.759C182.666 144.429 182.146 143.963 181.723 143.362C181.299 142.753 180.961 142.038 180.707 141.217C180.453 140.387 180.263 139.482 180.136 138.5V137.776C180.263 136.786 180.453 135.881 180.707 135.06C180.961 134.239 181.299 133.523 181.723 132.914C182.146 132.305 182.666 131.835 183.284 131.505C183.902 131.175 184.63 131.01 185.468 131.01C186.365 131.01 187.148 131.183 187.816 131.53C188.493 131.869 189.052 132.351 189.492 132.978C189.941 133.595 190.275 134.332 190.495 135.187C190.724 136.033 190.838 136.968 190.838 137.992ZM187.474 138.259V137.992C187.474 137.408 187.427 136.858 187.334 136.342C187.241 135.817 187.089 135.356 186.877 134.958C186.665 134.56 186.378 134.247 186.014 134.019C185.65 133.79 185.193 133.676 184.643 133.676C184.118 133.676 183.669 133.765 183.297 133.942C182.933 134.12 182.628 134.366 182.383 134.679C182.146 134.992 181.96 135.36 181.824 135.783C181.697 136.206 181.613 136.663 181.57 137.154V139.135C181.63 139.786 181.769 140.375 181.989 140.899C182.209 141.416 182.535 141.826 182.967 142.131C183.407 142.436 183.974 142.588 184.668 142.588C185.21 142.588 185.662 142.482 186.026 142.271C186.39 142.05 186.678 141.746 186.89 141.356C187.101 140.959 187.249 140.497 187.334 139.973C187.427 139.448 187.474 138.877 187.474 138.259ZM196.627 134.069V145H193.275V131.264H196.449L196.627 134.069ZM200.804 131.175L200.753 134.298C200.567 134.264 200.355 134.239 200.118 134.222C199.89 134.205 199.674 134.196 199.471 134.196C198.954 134.196 198.502 134.268 198.112 134.412C197.723 134.548 197.397 134.746 197.135 135.009C196.881 135.271 196.686 135.593 196.551 135.974C196.415 136.346 196.339 136.769 196.322 137.243L195.599 137.154C195.599 136.283 195.688 135.474 195.865 134.729C196.043 133.985 196.301 133.333 196.64 132.774C196.978 132.216 197.401 131.784 197.909 131.479C198.425 131.166 199.018 131.01 199.687 131.01C199.873 131.01 200.072 131.027 200.283 131.061C200.503 131.086 200.677 131.124 200.804 131.175ZM209.779 142.08V135.745C209.779 135.28 209.699 134.878 209.538 134.539C209.377 134.201 209.132 133.938 208.802 133.752C208.472 133.566 208.053 133.473 207.545 133.473C207.096 133.473 206.703 133.549 206.364 133.701C206.034 133.854 205.78 134.069 205.603 134.349C205.425 134.619 205.336 134.933 205.336 135.288H201.972C201.972 134.721 202.107 134.184 202.378 133.676C202.649 133.16 203.034 132.702 203.533 132.305C204.041 131.898 204.646 131.581 205.349 131.353C206.06 131.124 206.855 131.01 207.735 131.01C208.776 131.01 209.703 131.188 210.516 131.543C211.337 131.89 211.98 132.415 212.445 133.117C212.919 133.82 213.156 134.704 213.156 135.771V141.763C213.156 142.448 213.199 143.036 213.283 143.527C213.376 144.01 213.512 144.429 213.689 144.784V145H210.274C210.114 144.653 209.991 144.213 209.906 143.68C209.822 143.138 209.779 142.605 209.779 142.08ZM210.249 136.634L210.274 138.627H208.154C207.63 138.627 207.168 138.682 206.771 138.792C206.373 138.894 206.047 139.046 205.793 139.249C205.539 139.444 205.349 139.681 205.222 139.96C205.095 140.231 205.031 140.54 205.031 140.887C205.031 141.225 205.107 141.53 205.26 141.801C205.421 142.072 205.649 142.287 205.945 142.448C206.25 142.601 206.605 142.677 207.012 142.677C207.604 142.677 208.12 142.558 208.561 142.321C209.001 142.076 209.343 141.78 209.589 141.433C209.834 141.086 209.965 140.756 209.982 140.442L210.947 141.89C210.829 142.237 210.651 142.605 210.414 142.994C210.177 143.383 209.872 143.747 209.5 144.086C209.128 144.424 208.679 144.704 208.154 144.924C207.63 145.144 207.02 145.254 206.326 145.254C205.438 145.254 204.642 145.076 203.939 144.721C203.237 144.365 202.683 143.879 202.276 143.261C201.87 142.643 201.667 141.94 201.667 141.153C201.667 140.425 201.802 139.782 202.073 139.224C202.344 138.665 202.746 138.195 203.279 137.814C203.812 137.425 204.473 137.133 205.26 136.938C206.055 136.735 206.965 136.634 207.989 136.634H210.249ZM219.529 134.069V145H216.178V131.264H219.352L219.529 134.069ZM223.706 131.175L223.655 134.298C223.469 134.264 223.257 134.239 223.021 134.222C222.792 134.205 222.576 134.196 222.373 134.196C221.857 134.196 221.404 134.268 221.015 134.412C220.625 134.548 220.299 134.746 220.037 135.009C219.783 135.271 219.589 135.593 219.453 135.974C219.318 136.346 219.242 136.769 219.225 137.243L218.501 137.154C218.501 136.283 218.59 135.474 218.768 134.729C218.945 133.985 219.203 133.333 219.542 132.774C219.881 132.216 220.304 131.784 220.812 131.479C221.328 131.166 221.92 131.01 222.589 131.01C222.775 131.01 222.974 131.027 223.186 131.061C223.406 131.086 223.579 131.124 223.706 131.175ZM229.8 143.477L233.481 131.264H237.074L231.564 147.082C231.438 147.421 231.272 147.789 231.069 148.187C230.875 148.584 230.612 148.961 230.282 149.316C229.952 149.68 229.537 149.977 229.038 150.205C228.547 150.434 227.951 150.548 227.248 150.548C226.943 150.548 226.673 150.527 226.436 150.484C226.199 150.442 225.949 150.387 225.687 150.319V147.806C225.771 147.814 225.868 147.818 225.979 147.818C226.097 147.827 226.199 147.831 226.283 147.831C226.774 147.831 227.18 147.772 227.502 147.653C227.824 147.543 228.082 147.361 228.276 147.107C228.479 146.862 228.649 146.54 228.784 146.143L229.8 143.477ZM227.984 131.264L231.095 141.382L231.641 144.924L229.33 145.343L224.366 131.264H227.984Z" fill="#2A0944"/>
<path d="M199.297 20.272C197.412 18.3853 194.8 17.25 192.129 17.25H189.945H140.116C138.61 17.25 137.384 16.0239 137.384 14.4916C137.384 13.7197 137.685 13.0444 138.229 12.4995C138.777 11.9532 139.505 11.6514 140.277 11.6514L189.945 11.5986C190.774 11.5986 191.454 10.9804 191.454 10.1514C191.454 9.32235 190.804 8.6514 189.975 8.6514H140.277C138.704 8.6514 137.224 9.2637 136.108 10.3785C134.996 11.4916 134.384 12.9713 134.384 14.5694C134.384 17.7304 136.955 20.3028 140.116 20.3028H143V55.7846C143 56.6886 143.74 57.2874 144.511 57.2874C144.879 57.2874 145.255 57.1506 145.561 56.8451L153.939 48.4664C154.232 48.1735 154.616 48.027 155 48.027C155.384 48.027 155.768 48.1735 156.061 48.4664L164.439 56.8451C164.745 57.1507 165.121 57.2874 165.489 57.2874C166.26 57.2874 167 56.6886 167 55.7846V20.3028H192.159C194.038 20.3028 195.878 21.0645 197.205 22.3931C198.554 23.7422 199.297 25.5353 199.297 27.441V85.9804C199.297 87.8554 198.566 89.6176 197.24 90.9433C195.914 92.269 194.152 93 192.277 93H136.023C134.083 93 132.26 92.2457 130.889 90.876C129.517 89.502 128.762 87.6768 128.762 85.7388V12.2403C128.762 7.14555 132.907 3 138.002 3H189.975H196.25H196.442C197.271 3 197.942 2.3292 197.942 1.5C197.942 0.67095 197.271 0 196.442 0H137.973C131.223 0 125.732 5.4903 125.732 12.2403V85.7388C125.732 88.4781 126.799 91.0546 128.737 92.9957C130.676 94.9336 133.253 96 135.994 96H192.248C194.926 96 197.441 94.957 199.332 93.0645C201.225 91.1733 202.268 88.6582 202.268 85.9805V27.441C202.268 24.7339 201.213 22.188 199.297 20.272ZM164 52.1359L158.182 46.3179C157.332 45.468 156.202 45 155 45C153.798 45 152.668 45.468 151.818 46.3179L146 52.1359V20.4057H164V52.1359Z" fill="#2A0944"/>
<path d="M137.384 14.4916C137.384 16.0239 138.61 17.25 140.116 17.25H189.945C185.75 17.25 184.25 12 189.945 11.5986L140.277 11.6514C139.505 11.6514 138.777 11.9532 138.229 12.4995C137.685 13.0444 137.384 13.7197 137.384 14.4916Z" fill="#2A0944"/>
<path d="M158.182 46.318L164 52.136V20.4058H146V52.136L151.818 46.318C152.668 45.4681 153.798 45.0001 155 45.0001C156.202 45.0001 157.332 45.4681 158.182 46.318Z" fill="white"/>
</svg>
